<svg width="42" height="40" viewBox="0 0 42 40" fill="none" xmlns="http://www.w3.org/2000/svg">
<path d="M37.5 3.5H33V2C33 1.17163 32.3284 0.5 31.5 0.5C30.6716 0.5 30 1.17163 30 2V3.5H12V2C12 1.17163 11.3284 0.5 10.5 0.5C9.67163 0.5 9 1.17163 9 2V3.5H4.5C2.01855 3.5 0 5.51855 0 8V35C0 37.4814 2.01855 39.5 4.5 39.5H37.5C39.9814 39.5 42 37.4814 42 35V8C42 5.51855 39.9814 3.5 37.5 3.5ZM4.5 6.5H9V8C9 8.82837 9.67163 9.5 10.5 9.5C11.3284 9.5 12 8.82837 12 8V6.5H30V8C30 8.82837 30.6716 9.5 31.5 9.5C32.3284 9.5 33 8.82837 33 8V6.5H37.5C38.3269 6.5 39 7.1731 39 8V12.5H3V8C3 7.1731 3.6731 6.5 4.5 6.5ZM37.5 36.5H4.5C3.6731 36.5 3 35.8276 3 35V15.5H39V35C39 35.8276 38.3269 36.5 37.5 36.5Z" fill="white"/>
</svg>
