<svg width="36" height="33" viewBox="0 0 36 33" fill="none" xmlns="http://www.w3.org/2000/svg">
<path d="M2.09999 13.8462C1.79999 12.4615 1.5 11.0769 1.5 9.55384C1.5 5.53846 5.09999 1.38461 9.59999 1.38461C12.6 1.38461 15.3 3.04615 16.65 5.67692C16.95 6.23077 17.4 6.50769 18 6.50769C18.6 6.50769 19.05 6.23077 19.35 5.67692C20.7 3.04615 23.4 1.38461 26.4 1.38461C30.9 1.38461 34.5 5.53846 34.5 9.55384C34.5 11.0769 34.35 12.4615 33.9 13.8462" stroke="white" stroke-width="2" stroke-miterlimit="10" stroke-linejoin="round"/>
<path d="M28.5 23.2616C23.85 28.6616 18 31.8462 18 31.8462C18 31.8462 12.15 28.6616 7.5 23.2616" stroke="white" stroke-width="2" stroke-miterlimit="10" stroke-linejoin="round"/>
<path d="M0 18H7.5L10.8 14.5385L17.25 22.1538L22.2 11.0769L25.5 18H36" stroke="white" stroke-width="2" stroke-miterlimit="10" stroke-linejoin="round"/>
</svg>
