<svg width="32" height="38" viewBox="0 0 32 38" fill="none" xmlns="http://www.w3.org/2000/svg">
<path d="M0.259343 29.7606L0.0482744 31.3436C-0.162794 32.9467 0.324673 34.5599 1.38504 35.7761C2.45043 36.9922 3.98319 37.6908 5.60138 37.6908H26.3967C28.0098 37.6908 29.5476 36.9922 30.613 35.7761C31.6784 34.5599 32.1659 32.9467 31.9498 31.3436L31.7387 29.7606C30.9698 23.9663 25.9745 19.5992 20.1299 19.5992H11.8681C6.02352 19.5992 1.02823 23.9663 0.259343 29.7606ZM11.8681 22.6144H20.135C24.4769 22.6144 28.1807 25.8609 28.7536 30.1627L28.9646 31.7457C29.0652 32.4945 28.844 33.2231 28.3465 33.791C27.844 34.3639 27.1555 34.6755 26.3967 34.6755H5.60138C4.84254 34.6755 4.15406 34.3639 3.65654 33.791C3.15902 33.2231 2.9379 32.4945 3.03841 31.7457L3.24948 30.1627C3.82238 25.8609 7.52613 22.6144 11.8681 22.6144Z" fill="white"/>
<path d="M25.0448 9.04579C25.0448 4.05553 20.9893 0 15.999 0C11.0088 0 6.95323 4.05553 6.95323 9.04579C6.95323 14.036 11.0088 18.0916 15.999 18.0916C20.9893 18.0916 25.0448 14.036 25.0448 9.04579ZM9.96849 9.04579C9.96849 5.71895 12.6722 3.01526 15.999 3.01526C19.3259 3.01526 22.0295 5.71895 22.0295 9.04579C22.0295 12.3726 19.3259 15.0763 15.999 15.0763C12.6722 15.0763 9.96849 12.3726 9.96849 9.04579Z" fill="white"/>
</svg>
