<svg width="54" height="54" viewBox="0 0 54 54" fill="none" xmlns="http://www.w3.org/2000/svg">
<path fill-rule="evenodd" clip-rule="evenodd" d="M23.0315 10.9097C23.7006 10.2405 23.7006 9.15442 23.0315 8.48529L19.3949 4.84874C18.0555 3.50928 15.8856 3.50928 14.5462 4.84874L4.84872 14.5462C3.50926 15.8857 3.50926 18.0555 4.84872 19.3949L8.48527 23.0315C9.15439 23.7006 10.2405 23.7006 10.9096 23.0315L23.0315 10.9097ZM16.9706 7.27311L19.3949 9.69748L9.69745 19.3949L7.27309 16.9706L16.9706 7.27311Z" fill="white"/>
<path fill-rule="evenodd" clip-rule="evenodd" d="M44.8508 30.3046C44.1817 29.6355 43.0956 29.6355 42.4264 30.3046L30.3046 42.4264C29.6355 43.0955 29.6355 44.1817 30.3046 44.8508L33.9411 48.4873C35.2806 49.8268 37.4504 49.8268 38.7899 48.4873L48.4873 38.7899C49.8268 37.4504 49.8268 35.2806 48.4873 33.9411L44.8508 30.3046ZM36.3655 46.063L33.9411 43.6386L43.6386 33.9411L46.063 36.3655L36.3655 46.063Z" fill="white"/>
<path fill-rule="evenodd" clip-rule="evenodd" d="M19.3949 26.6681L26.668 33.9411L23.0315 37.5777C21.692 38.9172 21.692 41.087 23.0315 42.4264C24.0873 43.4822 25.6122 45.0072 26.668 46.063C28.0075 47.4024 30.1773 47.4024 31.5168 46.063L46.0629 31.5168C47.4024 30.1773 47.4024 28.0075 46.0629 26.6681C45.0071 25.6122 43.4822 24.0873 42.4264 23.0315C41.0869 21.692 38.9171 21.692 37.5777 23.0315L33.9411 26.6681L26.668 19.395L30.3046 15.7584C31.644 14.4189 31.644 12.2491 30.3046 10.9097C29.2488 9.85386 27.7238 8.32893 26.668 7.27312C25.3286 5.93366 23.1587 5.93366 21.8193 7.27312L7.27309 21.8193C5.93363 23.1588 5.93363 25.3286 7.27309 26.668C8.3289 27.7239 9.85383 29.2488 10.9096 30.3046C12.2491 31.6441 14.4189 31.6441 15.7584 30.3046L19.3949 26.6681ZM40.002 25.4559L25.4558 40.0021L29.0924 43.6386L43.6386 29.0924L40.002 25.4559ZM13.334 27.8802L27.8802 13.334L24.2437 9.69749L9.69746 24.2437L13.334 27.8802ZM31.5168 29.0924L29.0924 31.5168L21.8193 24.2437L24.2437 21.8193L31.5168 29.0924Z" fill="white"/>
</svg>
